<svg width="26" height="26" viewBox="0 0 26 26" fill="none" xmlns="http://www.w3.org/2000/svg">
<path d="M13 1C19.6274 1 25.001 6.37265 25.001 13C25.0009 19.6273 19.6274 25 13 25C6.37274 24.9998 1.00003 19.6272 1 13C1 6.37276 6.37272 1.00017 13 1Z" fill="#0D221D"/>
<path d="M13 1C19.6274 1 25.001 6.37265 25.001 13C25.0009 19.6273 19.6274 25 13 25C6.37274 24.9998 1.00003 19.6272 1 13C1 6.37276 6.37272 1.00017 13 1Z" stroke="#0D221D" stroke-width="2"/>
<path d="M17.8178 12.5576C18.0311 12.7711 18.0577 13.1013 17.8979 13.3437L17.8178 13.4424L13.4428 17.8174C13.4291 17.8311 13.4125 17.8414 13.3979 17.8535C13.3811 17.8674 13.3652 17.8824 13.3471 17.8945C13.1041 18.057 12.7726 18.0318 12.558 17.8174L8.18303 13.4424C7.93895 13.1983 7.93895 12.8017 8.18303 12.5576C8.42712 12.3137 8.82377 12.3136 9.0678 12.5576L12.3754 15.8652L12.3754 8.625C12.3754 8.27982 12.6552 8 13.0004 8C13.3454 8.00017 13.6254 8.27993 13.6254 8.625L13.6254 15.8652L16.933 12.5576L17.0317 12.4775C17.2742 12.3177 17.6044 12.3442 17.8178 12.5576Z" fill="white"/>
</svg>
