<svg width="26" height="26" viewBox="0 0 26 26" fill="none" xmlns="http://www.w3.org/2000/svg">
<path d="M13 1C19.6272 1.00003 24.9998 6.37274 25 13C25 19.6274 19.6273 25.0009 13 25.001C6.37265 25.001 1 19.6274 1 13C1.00017 6.37272 6.37276 1 13 1Z" fill="#0D221D"/>
<path d="M13 1C19.6272 1.00003 24.9998 6.37274 25 13C25 19.6274 19.6273 25.0009 13 25.001C6.37265 25.001 1 19.6274 1 13C1.00017 6.37272 6.37276 1 13 1Z" stroke="#0D221D" stroke-width="2"/>
<path d="M12.5576 8.18281C12.7711 7.96952 13.1013 7.94292 13.3438 8.10273L13.4424 8.18281L17.8174 12.5578C17.8311 12.5715 17.8414 12.5881 17.8535 12.6027C17.8674 12.6195 17.8824 12.6354 17.8945 12.6535C18.057 12.8965 18.0318 13.2281 17.8174 13.4426L13.4424 17.8176C13.1983 18.0617 12.8017 18.0617 12.5576 17.8176C12.3137 17.5735 12.3136 17.1768 12.5576 16.9328L15.8652 13.6252H8.625C8.27982 13.6252 8 13.3454 8 13.0002C8.00017 12.6552 8.27993 12.3752 8.625 12.3752H15.8652L12.5576 9.06758L12.4775 8.96895C12.3177 8.7264 12.3442 8.39623 12.5576 8.18281Z" fill="white"/>
</svg>
