<svg width="10" height="10" viewBox="0 0 10 10" fill="none" xmlns="http://www.w3.org/2000/svg">
<path d="M5.44238 0.182812C5.22894 -0.0304808 4.89874 -0.0570764 4.65625 0.102734L4.55762 0.182812L0.182617 4.55781C0.168935 4.57149 0.158633 4.58815 0.146484 4.60273C0.132553 4.61948 0.117617 4.63536 0.105469 4.65352C-0.0570446 4.89651 -0.0317539 5.22806 0.182617 5.44258L4.55762 9.81758C4.80169 10.0617 5.19831 10.0617 5.44238 9.81758C5.6863 9.57349 5.68641 9.17684 5.44238 8.93281L2.13477 5.6252H9.375C9.72018 5.6252 10 5.34537 10 5.0002C9.99983 4.65516 9.72007 4.3752 9.375 4.3752H2.13477L5.44238 1.06758L5.52246 0.968945C5.68226 0.726399 5.6558 0.396228 5.44238 0.182812Z" fill="white"/>
</svg>
