<svg preserveAspectRatio="none" width="100%" height="100%" overflow="visible" style="display: block;" viewBox="0 0 344 89" fill="none" xmlns="http://www.w3.org/2000/svg">
<g id="Frame" clip-path="url(#clip0_22_125)">
<path id="Vector" d="M51.328 1.408H71.168V87.68H51.328V53.248H19.712V87.68H0V1.408H19.712V36.48H51.328V1.408ZM84.55 44.288C84.55 31.0614 88.3473 20.3947 95.942 12.288C103.622 4.096 113.819 0 126.534 0C139.334 0 149.531 4.05333 157.126 12.16C164.721 20.2667 168.518 30.976 168.518 44.288C168.518 57.5147 164.678 68.224 156.998 76.416C149.403 84.5227 139.249 88.576 126.534 88.576C113.734 88.576 103.537 84.5227 95.942 76.416C88.3473 68.3094 84.55 57.6 84.55 44.288ZM111.302 25.088C107.547 29.7814 105.67 36.1814 105.67 44.288C105.67 52.3947 107.547 58.8374 111.302 63.616C115.057 68.3094 120.134 70.656 126.534 70.656C132.934 70.656 138.011 68.3094 141.766 63.616C145.521 58.8374 147.398 52.3947 147.398 44.288C147.398 36.1814 145.521 29.7814 141.766 25.088C138.011 20.3094 132.934 17.92 126.534 17.92C120.134 17.92 115.057 20.3094 111.302 25.088ZM201.712 44.16H208.24C218.651 44.16 223.856 39.424 223.856 29.952C223.856 21.4187 219.035 17.152 209.392 17.152H201.712V44.16ZM182 1.408H211.696C221.253 1.408 228.976 4.096 234.864 9.472C240.837 14.848 243.824 21.6747 243.824 29.952C243.824 39.424 240.709 46.7627 234.48 51.968C228.336 57.1734 220.741 59.776 211.696 59.776H201.712V87.68H182V1.408ZM273.965 71.936H307.757V87.68H254.125V1.408H307.245V17.152H273.965V36.736H303.661V52.352H273.965V71.936ZM323.878 85.376C321.659 83.1574 320.55 80.4694 320.55 77.312C320.55 74.1547 321.659 71.4667 323.878 69.248C326.097 67.0294 328.785 65.92 331.942 65.92C335.099 65.92 337.787 67.0294 340.006 69.248C342.225 71.4667 343.334 74.1547 343.334 77.312C343.334 80.4694 342.225 83.1574 340.006 85.376C337.787 87.5947 335.099 88.704 331.942 88.704C328.785 88.704 326.097 87.5947 323.878 85.376Z" fill="var(--fill-0, #0F172A)"/>
</g>
<defs>
<clipPath id="clip0_22_125">
<rect width="344" height="89" fill="white"/>
</clipPath>
</defs>
</svg>
