<svg preserveAspectRatio="none" width="100%" height="100%" overflow="visible" style="display: block;" viewBox="0 0 88 27" fill="none" xmlns="http://www.w3.org/2000/svg">
<g id="logo.svg">
<path id="Vector" d="M6.92522 18.852H7.96751C9.16333 18.852 10.0198 18.6985 10.5369 18.3914C11.054 18.0844 11.3126 17.5915 11.3126 16.9129C11.3126 16.2341 11.054 15.7412 10.5369 15.4342C10.0198 15.1272 9.16333 14.9737 7.96751 14.9737H6.92522V18.852ZM6.92522 11.4348H7.79784C9.28449 11.4348 10.0278 10.8449 10.0278 9.66525C10.0278 8.48565 9.28449 7.8958 7.79784 7.8958H6.92522V11.4348ZM2.1743 4.25989H9.25222C10.9328 4.25989 12.2094 4.66388 13.082 5.47186C13.9546 6.27983 14.3909 7.44333 14.3909 8.96231C14.3909 9.88346 14.2213 10.651 13.8819 11.2651C13.5588 11.863 13.0578 12.372 12.3791 12.7922C13.0578 12.9214 13.6314 13.1234 14.1 13.3982C14.5849 13.6567 14.9727 13.9799 15.2636 14.3677C15.5706 14.7556 15.7887 15.1918 15.9181 15.6766C16.0473 16.1614 16.112 16.6785 16.112 17.228C16.112 18.0844 15.9584 18.8439 15.6514 19.5065C15.3606 20.169 14.9404 20.7265 14.3909 21.179C13.8577 21.6315 13.2032 21.9708 12.4276 22.197C11.6519 22.4233 10.7793 22.5364 9.80972 22.5364H2.1743V4.25989Z" fill="var(--fill-0, #151834)"/>
<path id="Vector_2" d="M23.9507 13.3982C23.9507 14.1253 24.088 14.796 24.3627 15.41C24.6375 16.0241 25.0091 16.5574 25.4778 17.0098C25.9464 17.4623 26.4878 17.8178 27.1018 18.0763C27.7321 18.3187 28.3946 18.4399 29.0895 18.4399C29.7843 18.4399 30.4388 18.3187 31.0528 18.0763C31.683 17.8178 32.2324 17.4623 32.7011 17.0098C33.1859 16.5574 33.5656 16.0241 33.8403 15.41C34.1151 14.796 34.2525 14.1253 34.2525 13.3982C34.2525 12.6709 34.1151 12.0003 33.8403 11.3863C33.5656 10.7722 33.1859 10.239 32.7011 9.7865C32.2324 9.33403 31.683 8.98659 31.0528 8.74418C30.4388 8.48564 29.7843 8.35633 29.0895 8.35633C28.3946 8.35633 27.7321 8.48564 27.1018 8.74418C26.4878 8.98659 25.9464 9.33403 25.4778 9.7865C25.0091 10.239 24.6375 10.7722 24.3627 11.3863C24.088 12.0003 23.9507 12.6709 23.9507 13.3982ZM18.9816 13.3982C18.9816 12.0408 19.2321 10.7802 19.733 9.61677C20.234 8.43716 20.9288 7.41101 21.8176 6.53839C22.7064 5.66577 23.7649 4.98707 24.993 4.50228C26.2373 4.00134 27.6027 3.75086 29.0895 3.75086C30.56 3.75086 31.9174 4.00134 33.1617 4.50228C34.406 4.98707 35.4725 5.66577 36.3613 6.53839C37.2662 7.41101 37.9691 8.43716 38.4701 9.61677C38.971 10.7802 39.2215 12.0408 39.2215 13.3982C39.2215 14.7556 38.971 16.0241 38.4701 17.2038C37.9691 18.3672 37.2662 19.3853 36.3613 20.2578C35.4725 21.1305 34.406 21.8173 33.1617 22.3183C31.9174 22.803 30.56 23.0454 29.0895 23.0454C27.6027 23.0454 26.2373 22.803 24.993 22.3183C23.7649 21.8173 22.7064 21.1305 21.8176 20.2578C20.9288 19.3853 20.234 18.3672 19.733 17.2038C19.2321 16.0241 18.9816 14.7556 18.9816 13.3982Z" fill="var(--fill-0, #151834)"/>
<path id="Vector_3" d="M43.213 22.5364V4.25989H47.9639L56.7386 15.4342V4.25989H61.4652V22.5364H56.7386L47.9639 11.362V22.5364H43.213Z" fill="var(--fill-0, #151834)"/>
<path id="Vector_4" d="M70.6468 13.3982C70.6468 14.1253 70.7842 14.796 71.0589 15.41C71.3336 16.0241 71.7053 16.5574 72.1739 17.0098C72.6425 17.4623 73.1839 17.8178 73.7979 18.0763C74.4282 18.3187 75.0907 18.4399 75.7856 18.4399C76.4805 18.4399 77.1349 18.3187 77.749 18.0763C78.3792 17.8178 78.9286 17.4623 79.3973 17.0098C79.882 16.5574 80.2618 16.0241 80.5365 15.41C80.8112 14.796 80.9486 14.1253 80.9486 13.3982C80.9486 12.6709 80.8112 12.0003 80.5365 11.3863C80.2618 10.7722 79.882 10.239 79.3973 9.7865C78.9286 9.33403 78.3792 8.98659 77.749 8.74418C77.1349 8.48564 76.4805 8.35633 75.7856 8.35633C75.0907 8.35633 74.4282 8.48564 73.7979 8.74418C73.1839 8.98659 72.6425 9.33403 72.1739 9.7865C71.7053 10.239 71.3336 10.7722 71.0589 11.3863C70.7842 12.0003 70.6468 12.6709 70.6468 13.3982ZM65.6777 13.3982C65.6777 12.0408 65.9282 10.7802 66.4292 9.61677C66.9301 8.43716 67.625 7.41101 68.5138 6.53839C69.4025 5.66577 70.461 4.98707 71.6891 4.50228C72.9334 4.00134 74.2989 3.75086 75.7856 3.75086C77.2561 3.75086 78.6135 4.00134 79.8578 4.50228C81.1021 4.98707 82.1684 5.66577 83.0573 6.53839C83.9626 7.41101 84.665 8.43716 85.1661 9.61677C85.6672 10.7802 85.9173 12.0408 85.9173 13.3982C85.9173 14.7556 85.6672 16.0241 85.1661 17.2038C84.665 18.3672 83.9626 19.3853 83.0573 20.2578C82.1684 21.1305 81.1021 21.8173 79.8578 22.3183C78.6135 22.803 77.2561 23.0454 75.7856 23.0454C74.2989 23.0454 72.9334 22.803 71.6891 22.3183C70.461 21.8173 69.4025 21.1305 68.5138 20.2578C67.625 19.3853 66.9301 18.3672 66.4292 17.2038C65.9282 16.0241 65.6777 14.7556 65.6777 13.3982Z" fill="var(--fill-0, #151834)"/>
</g>
</svg>
